{"title":"And While We Were Here 2012 HDRiP XViD SAF","uid":8811845,"size":1480433084,"categoryP":"video","categoryS":"movies","magnet":"?xt=urn:btih:25192a8b28f2649856c5b6641346f3a8dd6c79a9&amp;dn=And+While+We+Were+Here+2012+HDRiP+XViD+SAF&amp;tr=udp%3A%2F%2Ftracker.openbittorrent.com%3A80&amp;tr=udp%3A%2F%2Fopen.demonii.com%3A1337&amp;tr=udp%3A%2F%2Ftracker.coppersurfer.tk%3A6969&amp;tr=udp%3A%2F%2Fexodus.desync.com%3A6969","seeders":2,"leechers":0,"uploader":"srkfan","files":4,"time":1376479711,"description":"[b]SilverTorrent - Clean And Verified Torrents Download[/b]\n\n------------------------------------------------------\n &lt;a href=&quot;\nhttp://img835.imageshack.us/img835/9046/yk0t.jpg&quot; rel=&quot;nofollow&quot; target=&quot;_NEW&quot;&gt;\nhttp://img835.imageshack.us/img835/9046/yk0t.jpg&lt;/a&gt;\n\n\n\nFormat                                   : AVI\nFormat/Info                              : Audio Video Interleave\nFile size                                : 1.36 GiB\nDuration                                 : 1h 23mn\nOverall bit rate                         : 2 325 Kbps\nWriting application                      : VirtualDubMod 1.5.10.2 (build 2540/release)\nWriting library                          : VirtualDubMod build 2540/release\n\nVideo\nID                                       : 0\nFormat                                   : MPEG-4 Visual\nFormat profile                           : Advanced Simple@L5\nFormat settings, BVOP                    : 2\nFormat settings, QPel                    : No\nFormat settings, GMC                     : No warppoints\nFormat settings, Matrix                  : Default (H.263)\nMuxing mode                              : Packed bitstream\nCodec ID                                 : XVID\nCodec ID/Hint                            : XviD\nDuration                                 : 1h 23mn\nBit rate                                 : 1 932 Kbps\nWidth                                    : 720 pixels\nHeight                                   : 288 pixels\nDisplay aspect ratio                     : 2.500\nFrame rate                               : 23.976 fps\nColor space                              : YUV\nChroma subsampling                       : 4:2:0\nBit depth                                : 8 bits\nScan type                                : Progressive\nCompression mode                         : Lossy\nBits/(Pixel*Frame)                       : 0.389\nStream size                              : 1.13 GiB (83%)\nWriting library                          : XviD 64\n\nAudio\nID                                       : 1\nFormat                                   : AC-3\nFormat/Info                              : Audio Coding 3\nMode extension                           : CM (complete main)\nFormat settings, Endianness              : Big\nCodec ID                                 : 2000\nDuration                                 : 1h 23mn\nBit rate mode                            : Constant\nBit rate                                 : 384 Kbps\nChannel(s)                               : 6 channels\nChannel positions                        : Front: L C R, Side: L R, LFE\nSampling rate                            : 48.0 KHz\nBit depth                                : 16 bits\nCompression mode                         : Lossy\nStream size                              : 229 MiB (17%)\nAlignment                                : Split accross interleaves\nInterleave, duration                     : 42 ms (1.00 video frame)\nInterleave, preload duration             : 500 ms\n\n &lt;a href=&quot;\nhttp://www.imdb.com/title/tt1972819/&quot; rel=&quot;nofollow&quot; target=&quot;_NEW&quot;&gt;\nhttp://www.imdb.com/title/tt1972819/&lt;/a&gt;\n\n\nSet against the picturesque backdrop of the Island of Ischia, off the Amalfi Coast, While We Were Here follows a young American writer named Jane (Kate Bosworth) who finds herself at a personal and professional crossroads when she accompanies her husband Leonard (Iddo Goldberg) on a business trip. While escaping the mundane nature of her comfortable marriage by delving deeper into adapting her grandmother's WWII stories into a memoir, she stumbles into a romantic affair with a younger man (Jamie Blackley) who complicates her life even further. \n\nSource Used      1080p                 - Thanks\n &lt;a href=&quot;\nhttp://img42.imageshack.us/img42/6117/i923.png&quot; rel=&quot;nofollow&quot; target=&quot;_NEW&quot;&gt;\nhttp://img42.imageshack.us/img42/6117/i923.png&lt;/a&gt; &lt;a href=&quot;\nhttp://img16.imageshack.us/img16/8140/gm7n.png&quot; rel=&quot;nofollow&quot; target=&quot;_NEW&quot;&gt;\nhttp://img16.imageshack.us/img16/8140/gm7n.png&lt;/a&gt; &lt;a href=&quot;\nhttp://img401.imageshack.us/img401/4461/m0qx.png&quot; rel=&quot;nofollow&quot; target=&quot;_NEW&quot;&gt;\nhttp://img401.imageshack.us/img401/4461/m0qx.png&lt;/a&gt;","torrent":{"xt":"urn:btih:25192a8b28f2649856c5b6641346f3a8dd6c79a9","amp;dn":"And+While+We+Were+Here+2012+HDRiP+XViD+SAF","amp;tr":["udp%3A%2F%2Ftracker.openbittorrent.com%3A80","udp%3A%2F%2Fopen.demonii.com%3A1337","udp%3A%2F%2Ftracker.coppersurfer.tk%3A6969","udp%3A%2F%2Fexodus.desync.com%3A6969"],"infoHash":"25192a8b28f2649856c5b6641346f3a8dd6c79a9","infoHashBuffer":{"type":"Buffer","data":[37,25,42,139,40,242,100,152,86,197,182,100,19,70,243,168,221,108,121,169]},"announce":[],"urlList":[]}}